#!OML:ASF F:\VICON\USERDATA\INSTALL\rory3\rory3.ASF
:FULLY-SPECIFIED
:DEGREES
145
root -7.52145 14.1748 -2.53648 10.2977 -0.342388 -0.43315
lowerback 33.0439 -0.131146 1.7667
upperback 7.50778 0.848451 3.96379
thorax -8.71334 0.34341 2.93598
lowerneck -15.4096 11.4645 -3.07282
upperneck 7.1082 17.4811 -12.0586
head 5.51404 7.69338 -1.59014
rclavicle 0 -3.89618e-014
rhumerus -33.1285 -31.0021 -57.0599
rradius 62.7989
rwrist 14.9999
rhand -39.3072 -12.8191
rfingers 7.12502
rthumb -12.2999 -42.4373
lclavicle 0 -3.89618e-014
lhumerus 13.5946 21.4159 67.0956
lradius 58.7073
lwrist -13.304
lhand -31.8967 44.6076
lfingers 7.12502
lthumb -5.14896 74.5251
rfemur -38.2684 -7.23547 11.1867
rtibia 94.2361
rfoot -29.5245 13.245
rtoes -8.84688
lfemur -76.6087 5.17859 -16.5237
ltibia 82.5657
lfoot -3.64907 -15.3165
ltoes -24.3516
146
root -7.47588 14.159 -2.47449 10.4468 -0.70187 -0.146508
lowerback 32.9524 0.010752 1.32788
upperback 7.51368 0.87554 3.95359
thorax -8.68295 0.361445 3.15015
lowerneck -15.908 11.2995 -3.39056
upperneck 7.5449 17.3497 -11.5871
head 5.6543 7.59975 -1.38461
rclavicle 8.74653e-015 2.8625e-014
rhumerus -33.0955 -30.9632 -56.9905
rradius 62.536
rwrist 14.8474
rhand -39.3699 -11.991
rfingers 7.12502
rthumb -12.3603 -41.6056
lclavicle 8.74653e-015 2.8625e-014
lhumerus 13.5077 21.3828 67.1832
lradius 58.9152
lwrist -13.4778
lhand -31.2134 43.2761
lfingers 7.12502
lthumb -4.4892 73.2085
rfemur -38.4157 -6.8536 10.4278
rtibia 94.4995
rfoot -29.0414 14.5
rtoes -5.67067
lfemur -76.7122 5.31569 -17.0316
ltibia 83.0404
lfoot -3.98567 -15.1247
ltoes -23.633
147
root -7.40204 14.1531 -2.41352 10.6777 -0.693613 0.644836
lowerback 32.8784 -0.137281 1.11238
upperback 7.41805 0.591937 3.66706
thorax -8.74174 0.236195 3.06543
lowerneck -15.9289 11.2264 -3.31173
upperneck 7.5709 17.2283 -11.5083
head 5.65925 7.54522 -1.38363
rclavicle 5.56597e-015 -3.73715e-014
rhumerus -33.0334 -31.3271 -57.056
rradius 62.1431
rwrist 15.0754
rhand -39.5261 -12.221
rfingers 7.12502
rthumb -12.5109 -41.8264
lclavicle 5.56597e-015 -3.73715e-014
lhumerus 13.336 21.1264 67.0607
lradius 59.1462
lwrist -13.5079
lhand -31.0447 43.4738
lfingers 7.12502
lthumb -4.32628 73.4096
rfemur -38.1516 -7.34727 8.97363
rtibia 94.4595
rfoot -29.0261 15.471
rtoes -2.8188
lfemur -76.7619 4.69259 -18.1833
ltibia 83.4505
lfoot -4.67277 -14.5229
ltoes -23.8337
148
root -7.36627 14.1371 -2.3473 10.6982 -0.838785 0.148498
lowerback 32.8668 -0.193688 1.44721
upperback 7.44662 0.639793 3.78873
thorax -8.70485 0.251569 2.99741
lowerneck -15.6604 11.2609 -3.07109
upperneck 7.35649 17.2071 -11.7132
head 5.58647 7.55354 -1.4989
rclavicle -7.15625e-015 4.29375e-014
rhumerus -32.9462 -31.4074 -57.2048
rradius 61.8905
rwrist 15.1245
rhand -39.4071 -12.4435
rfingers 7.12502
rthumb -12.3961 -42.0559
lclavicle -7.15625e-015 4.29375e-014
lhumerus 12.932 20.8739 66.7437
lradius 59.4562
lwrist -12.9735
lhand -31.6472 42.1391
lfingers 7.12502
lthumb -4.90807 72.0623
rfemur -38.0508 -7.05317 9.40639
rtibia 94.4423
rfoot -28.6853 15.5944
rtoes -1.2318
lfemur -76.8022 4.90545 -17.7856
ltibia 83.9273
lfoot -5.09849 -14.3754
ltoes -23.8546
149
root -7.32925 14.1216 -2.27916 10.7849 -1.10937 -0.241206
lowerback 32.7727 -0.156618 1.59506
upperback 7.44898 0.741604 3.91544
thorax -8.67068 0.294898 3.01528
lowerneck -15.4721 11.2797 -2.94281
upperneck 7.23305 17.196 -11.8493
head 5.54019 7.55871 -1.57083
rclavicle 2.38542e-015 -4.77083e-015
rhumerus -33.101 -31.1346 -57.2872
rradius 62.0895
rwrist 14.714
rhand -39.2144 -12.7526
rfingers 7.12502
rthumb -12.2104 -42.3762
lclavicle 2.38542e-015 -4.77083e-015
lhumerus 12.996 20.7212 66.7234
lradius 59.3979
lwrist -12.9335
lhand -31.4126 42.3725
lfingers 7.12502
lthumb -4.68157 72.3007
rfemur -38.085 -6.63946 9.70121
rtibia 94.3707
rfoot -28.629 15.3843
rtoes -1.96554
lfemur -76.8696 5.21422 -17.5292
ltibia 84.3974
lfoot -5.37247 -14.2285
ltoes -22.6782
150
root -7.28208 14.1108 -2.21495 10.767 -1.59341 -0.283632
lowerback 32.8888 -0.0414234 1.47429
upperback 7.41068 0.845808 3.89365
thorax -8.76469 0.343411 3.01998
lowerneck -15.1483 11.3044 -2.70013
upperneck 7.01212 17.1614 -12.0775
head 5.45836 7.56176 -1.69775
rclavicle 1.90833e-014 -1.43125e-014
rhumerus -33.0333 -31.0724 -57.3918
rradius 61.8461
rwrist 14.7335
rhand -39.142 -12.4696
rfingers 7.12502
rthumb -12.1406 -42.0973
lclavicle 1.90833e-014 -1.43125e-014
lhumerus 13.2146 20.6845 66.7503
lradius 58.9944
lwrist -13.1154
lhand -31.1272 42.6108
lfingers 7.12502
lthumb -4.40597 72.545
rfemur -37.7857 -6.22083 9.47638
rtibia 94.0859
rfoot -28.9664 14.8513
rtoes -4.20288
lfemur -76.7273 5.53561 -17.7491
ltibia 84.8382
lfoot -5.94476 -13.9468
ltoes -22.7485
151
root -7.23582 14.1162 -2.15349 10.7305 -1.90594 -0.40191
lowerback 32.9357 -0.00652204 1.53148
upperback 7.48865 0.904898 3.91057
thorax -8.69879 0.368025 2.98548
lowerneck -15.0708 11.2784 -2.57662
upperneck 6.82699 17.0948 -12.2417
head 5.41066 7.53808 -1.7788
rclavicle -1.19271e-014 2.06736e-014
rhumerus -32.7155 -31.4068 -57.5037
rradius 61.3354
rwrist 15.0127
rhand -38.9659 -11.9759
rfingers 7.12502
rthumb -11.9708 -41.6136
lclavicle -1.19271e-014 2.06736e-014
lhumerus 13.304 20.675 66.8004
lradius 58.9221
lwrist -13.2057
lhand -31.2039 43.5504
lfingers 7.12502
lthumb -4.48004 73.4831
rfemur -37.3365 -5.87994 9.318
rtibia 93.7355
rfoot -29.0939 14.8163
rtoes -5.21421
lfemur -76.5065 5.63997 -17.8016
ltibia 85.1665
lfoot -6.37002 -13.6225
ltoes -22.8587
152
root -7.19407 14.1181 -2.09492 10.9012 -2.00292 -0.42439
lowerback 32.7585 -0.0492434 1.44842
upperback 7.49853 0.827916 4.01193
thorax -8.62096 0.332659 3.16503
lowerneck -15.0872 11.2886 -2.63593
upperneck 6.7698 17.1249 -12.3302
head 5.40107 7.5487 -1.79388
rclavicle -3.10104e-014 1.59028e-014
rhumerus -32.5307 -31.1614 -57.6311
rradius 61.4471
rwrist 14.612
rhand -39.0443 -13.1543
rfingers 7.12502
rthumb -12.0464 -42.7876
lclavicle -3.10104e-014 1.59028e-014
lhumerus 12.9684 20.8566 66.7827
lradius 59.0495
lwrist -13.0352
lhand -31.5108 42.5036
lfingers 7.12502
lthumb -4.77638 72.4298
rfemur -37.172 -5.76862 9.07463
rtibia 93.511
rfoot -29.1495 15.1037
rtoes -5.69629
lfemur -76.5801 5.55567 -17.9172
ltibia 85.4901
lfoot -6.76695 -13.4309
ltoes -23.4367
153
root -7.15987 14.1022 -2.04568 11.0588 -2.04806 -0.634044
lowerback 32.7442 -0.121175 1.51885
upperback 7.47806 0.774686 4.14574
thorax -8.63819 0.305648 3.28891
lowerneck -14.9688 11.3157 -2.77592
upperneck 6.55391 17.1564 -12.3802
head 5.30877 7.57871 -1.79906
rclavicle 7.95139e-016 7.95139e-015
rhumerus -32.2797 -30.8116 -57.9254
rradius 61.753
rwrist 13.9761
rhand -39.1848 -14.7391
rfingers 7.12502
rthumb -12.1818 -44.3644
lclavicle 7.95139e-016 7.95139e-015
lhumerus 13.0214 20.9252 66.8507
lradius 59.2546
lwrist -13.2751
lhand -30.7804 43.7044
lfingers 7.12502
lthumb -4.07105 73.6452
rfemur -37.1392 -5.64315 9.13545
rtibia 93.3792
rfoot -29.0896 15.1729
rtoes -6.14083
lfemur -76.8196 5.61602 -17.7939
ltibia 85.8503
lfoot -7.07071 -13.5173
ltoes -24.4475
154
root -7.12225 14.0952 -1.98925 11.1055 -2.31309 -0.864278
lowerback 32.8833 -0.108799 1.67167
upperback 7.43482 0.84405 4.14413
thorax -8.73949 0.334428 3.18117
lowerneck -15.0853 11.2691 -2.73849
upperneck 6.6709 17.1006 -12.3116
head 5.35819 7.54256 -1.78041
rclavicle 6.36111e-015 -2.14687e-014
rhumerus -32.2279 -30.8517 -58.067
rradius 61.573
rwrist 13.6902
rhand -38.5663 -15.2792
rfingers 7.12502
rthumb -11.5854 -44.939
lclavicle 6.36111e-015 -2.14687e-014
lhumerus 13.2996 20.8887 66.8838
lradius 59.1351
lwrist -13.4543
lhand -30.791 43.7844
lfingers 7.12502
lthumb -4.08134 73.7251
rfemur -36.9059 -5.20264 9.16874
rtibia 93.138
rfoot -29.1675 15.0748
rtoes -6.28464
lfemur -76.8662 5.83986 -17.6547
ltibia 86.2047
lfoot -7.26289 -13.5847
ltoes -24.0998
